<?xml version="1.0" encoding="utf-8"?>
<!-- Generator: Adobe Illustrator 21.1.0, SVG Export Plug-In . SVG Version: 6.00 Build 0)  -->
<svg version="1.1" id="Layer_1" xmlns="http://www.w3.org/2000/svg" xmlns:xlink="http://www.w3.org/1999/xlink" x="0px" y="0px"
	 width="132px" height="262px" viewBox="0 0 132 262" style="enable-background:new 0 0 132 262;" xml:space="preserve" focusable="false">
<g>
	<path style="fill:#010101;" d="M119.99,230H12.01c-1.11,0-2.01-0.89-2.01-2V31c0-1.1,0.9-2,2.01-2h107.98c1.11,0,2.01,0.89,2.01,2
		V228C122,229.11,121.1,230,119.99,230z M14,226.01h104V32.8H13.98L14,226.01z"/>
	<path style="fill:#010101;" d="M66,156.97c-14.14,0-26-11.43-26-25.48s11.86-25.48,26-25.48s26,11.43,26,25.48
		S80.14,156.97,66,156.97z M66,110c-11.92,0-21.62,9.65-21.62,21.5S54.08,153,66,153c11.92,0,21.62-9.66,21.62-21.5
		S77.92,110,66,110z"/>
	<path style="fill:#010101;" d="M108.94,229.09c-1.11,0-1.72-0.89-1.72-2c0-14.13-0.55-30.18-6.22-41.79
		c-6.02-12.32-17.62-18.31-35-18.31c-17.38,0-28.98,5.99-35,18.31c-5.67,11.61-6.22,27.66-6.22,41.79c0,1.1-0.61,2-1.72,2
		c-1.11,0-2.01-0.89-2.01-2c0-14.58,0.51-31.17,6.55-43.54C34.37,169.72,46.93,163,66,163s31.63,6.72,38.4,20.56
		c6.05,12.37,6.55,28.96,6.55,43.54C110.95,228.2,110.05,229.09,108.94,229.09z"/>
	<path style="fill:#010101;" d="M108.89,261H23.11C10.92,261,1,251.15,1,239.03V22.97C1,10.85,10.92,1,23.11,1h85.78
		C121.08,1,131,10.85,131,22.97v216.07C131,251.15,121.08,261,108.89,261z M23.11,4.99C13.14,4.99,5,13.06,5,22.97v216.07
		c0,9.91,8.14,17.97,18.11,17.97h85.78c9.98,0,18.11-8.06,18.11-17.97V22.97c0-9.91-8.14-17.97-18.11-17.97H23.11z"/>
</g>
</svg>
